HIERARCHY
ROOT Hips
{
  OFFSET 0 0 0
  CHANNELS 6 Xposition Yposition Zposition Zrotation Yrotation Xrotation
  JOINT LeftThigh
  {
    OFFSET 8.409438 0 -5.917753
    CHANNELS 3 Zrotation Yrotation Xrotation
    JOINT LeftLeg
    {
      OFFSET 0 0 -42.358652
      CHANNELS 3 Zrotation Yrotation Xrotation
      JOINT LeftFoot
      {
        OFFSET 0 0 -39.357303
        CHANNELS 3 Zrotation Yrotation Xrotation
      }
    }
  }
  JOINT RightThigh
  {
    OFFSET -8.409438 0 -5.917753
    CHANNELS 3 Zrotation Yrotation Xrotation
    JOINT RightLeg
    {
      OFFSET 0 0 -42.358652
      CHANNELS 3 Zrotation Yrotation Xrotation
      JOINT RightFoot
      {
        OFFSET 0 0 -39.357303
        CHANNELS 3 Zrotation Yrotation Xrotation
      }
    }
  }
  JOINT SpineLow
  {
    OFFSET 0 0 4.719101
    CHANNELS 3 Zrotation Yrotation Xrotation
    JOINT SpineMid
    {
      OFFSET 0 0 12.899191
      CHANNELS 3 Zrotation Yrotation Xrotation
      JOINT Chest
      {
        OFFSET 0 0 12.899191
        CHANNELS 3 Zrotation Yrotation Xrotation
        JOINT LeftShoulder
        {
          OFFSET 7.550562 1.41573 9.438202
          CHANNELS 3 Zrotation Yrotation Xrotation
          JOINT LeftArm
          {
            OFFSET 9.155056 0 4.247191
            CHANNELS 3 Zrotation Yrotation Xrotation
            JOINT LeftForearm
            {
              OFFSET 0 0 25.771955
              CHANNELS 3 Zrotation Yrotation Xrotation
              JOINT LeftHand
              {
                OFFSET 0 0 25.197169
                CHANNELS 3 Zrotation Yrotation Xrotation
              }
            }
          }
        }
        JOINT RightShoulder
        {
          OFFSET -7.550562 1.41573 9.438202
          CHANNELS 3 Zrotation Yrotation Xrotation
          JOINT RightArm
          {
            OFFSET -9.155056 0 4.247191
            CHANNELS 3 Zrotation Yrotation Xrotation
            JOINT RightForearm
            {
              OFFSET 0 0 -25.771955
              CHANNELS 3 Zrotation Yrotation Xrotation
              JOINT RightHand
              {
                OFFSET 0 0 -25.197169
                CHANNELS 3 Zrotation Yrotation Xrotation
              }
            }
          }
        }
        JOINT Neck
        {
          OFFSET 0 0 15.101124
          CHANNELS 3 Zrotation Yrotation Xrotation
          JOINT Head
          {
            OFFSET 0 0 11.325843
            CHANNELS 3 Zrotation Yrotation Xrotation
            End Site
            {
              OFFSET 0 0 14.157303
            }
          }
        }
      }
    }
  }
}
MOTION
Frames: 13
Frame Time: 0.0
0.0  89.887642  0.0  -1.548675  -17.374505  -91.905369  12.884776  -13.999294  0.301477  4.872689  2.588427  21.978756  8.187157  1.570169  4.627747  -3.801006  7.782433  -6.758808  -3.668185  6.448096  11.065443  5.868783  1.316026  -1.402691  2.916238  0.528862  -0.318055  7.965357  1.481467  -0.804329  7.965356  1.481467  -0.804329  5.863439  2.375324  8.920688  167.512918  5.214151  174.457408  -25.859537  64.63717  88.638401  66.484003  -24.226994  8.522334  3.117051  6.255723  -18.711259  -107.417737  62.40174  -155.675469  -17.734205  25.342529  -75.511162  78.265821  -5.7184  21.299701  -9.610574  0.162804  3.499497  -7.209138  0.067086  2.627953  
0.0  89.887642  0.0  -1.540936  -17.846837  -92.197714  14.814949  -14.477609  1.150953  3.498267  3.066538  21.266582  8.076177  1.644519  4.629746  -2.212857  7.646385  -6.181716  -4.384835  6.627756  10.957118  5.570737  1.373778  -1.340086  2.908269  0.523205  -0.308787  7.943827  1.464825  -0.779892  7.943828  1.464825  -0.779892  4.753148  2.42666  8.665103  167.124217  6.298719  174.470969  -20.73978  62.319134  91.417798  73.118758  -24.000094  9.584417  2.240883  6.368389  -17.115592  -107.380567  61.512662  -155.568967  -17.460409  24.917216  -75.272986  78.388796  -5.443433  20.836247  -9.477198  -0.106934  3.89736  -7.107558  -0.140694  2.922194  
0.0  89.887642  0.0  -1.308702  -18.505911  -92.796116  15.202394  -14.606865  1.717168  3.397791  3.355311  21.392123  8.070786  1.733737  4.573696  -0.899946  7.639659  -5.627303  -4.418613  6.859348  11.17933  5.418246  1.419256  -1.329808  2.791658  0.537183  -0.206592  7.627254  1.489905  -0.501956  7.627254  1.489905  -0.501956  4.707711  2.789378  8.202102  166.607566  7.042197  174.956753  -20.341301  60.633589  90.353094  72.110034  -23.691122  13.736662  3.436696  5.935004  -16.090829  -107.09138  61.335849  -155.096642  -17.117372  24.071377  -75.427475  78.07226  -5.4726  21.005213  -9.156292  -0.598845  4.174727  -6.863448  -0.511853  3.122875  
0.0  89.887642  0.0  -1.03571  -19.429781  -93.289733  15.981462  -14.692794  2.270089  3.293263  3.616999  21.4438  7.968556  1.766788  4.47281  -0.040702  7.742181  -5.525634  -3.75435  7.196447  11.67799  5.460396  1.266043  -1.282538  2.65454  0.463489  -0.104701  7.254728  1.276628  -0.234985  7.254728  1.276628  -0.234985  5.351839  3.741698  7.783938  166.147146  7.185752  175.73976  -19.719905  58.660598  90.30519  70.303991  -23.041145  17.617745  5.345462  5.951738  -15.021054  -106.003435  61.612054  -154.243764  -17.387954  23.153014  -75.391592  77.43766  -5.521789  21.042639  -8.714103  -0.751481  4.25173  -6.530633  -0.624428  3.178802  
0.0  89.887642  0.0  -0.733001  -20.2374  -93.791445  16.729378  -14.753825  2.874629  3.058567  3.777078  21.395181  7.827615  1.78697  4.402656  0.063053  8.01027  -5.649837  -2.650938  7.116435  12.438057  5.485008  1.300316  -1.266372  2.532356  0.411514  -0.063635  6.921475  1.130071  -0.130674  6.921474  1.130071  -0.130674  6.177111  4.462522  7.883704  165.924466  7.167256  176.642761  -19.453088  56.770095  90.548135  69.350318  -22.195082  21.21216  6.671961  6.219068  -13.264555  -102.55199  61.754557  -151.20523  -17.839229  21.886538  -75.464692  76.754293  -5.481197  21.263749  -8.266284  -0.80062  4.315798  -6.194326  -0.659028  3.226666  
0.0  89.887642  0.0  -0.449375  -21.109949  -94.389668  17.559021  -14.865798  3.606737  2.679895  3.895266  21.309875  7.742177  1.798414  4.31702  3.22E-4  8.340356  -5.812096  -0.416438  6.980216  13.468752  4.680474  1.064615  -1.276934  2.49232  0.361109  -0.043153  6.812331  0.990293  -0.080628  6.812331  0.990293  -0.080628  6.814268  4.930267  8.308297  166.073688  7.158333  177.445213  -18.94957  55.162887  91.114102  69.113831  -21.410767  23.923569  7.549714  6.227741  -11.291408  -98.396683  61.629545  -147.810415  -18.258086  21.067234  -75.576636  76.185482  -5.539343  21.325275  -7.894272  -0.730835  4.289346  -5.915842  -0.603692  3.20816  
0.0  89.887642  0.0  -0.192638  -22.072355  -94.950821  18.309404  -14.94709  4.371059  2.340174  3.969248  21.134079  7.762662  1.847389  4.244531  -0.279399  8.56806  -6.101517  1.043266  6.805212  14.278149  4.80919  1.015688  -1.175213  2.503279  0.288943  -0.046475  6.842209  0.793631  -0.096998  6.842208  0.793631  -0.096998  7.54036  5.318877  8.92952  166.417559  7.123093  178.013114  -18.320875  53.862308  91.600257  68.682056  -20.941484  25.376433  8.335393  6.175379  -9.247347  -94.291999  61.29383  -144.548113  -18.560064  20.868979  -75.639094  75.979351  -5.718742  21.293604  -7.598622  -0.480819  4.196282  -5.695951  -0.412892  3.141791  
0.0  89.887642  0.0  0.048431  -22.926411  -95.408402  18.677529  -14.908209  5.022598  2.400227  4.020249  20.9376  7.958746  1.89233  4.199902  -0.478321  8.731463  -6.392244  2.462807  6.626038  15.0053  4.909629  0.93761  -1.109816  2.51444  0.219136  -0.015564  6.873003  0.599859  -0.019725  6.873003  0.59986  -0.019725  8.281382  5.73608  9.240085  166.84236  7.079078  178.286957  -18.08788  53.296821  91.851415  67.930169  -20.385278  25.530946  8.976022  6.379888  -7.59458  -90.259822  60.637635  -141.310912  -18.683048  21.010365  -75.658692  75.946823  -6.068955  21.11206  -7.585621  -0.269437  3.812421  -5.687788  -0.24946  2.856488  
0.0  89.887642  0.0  0.152463  -23.44863  -95.622267  18.613953  -14.854931  5.415636  3.082526  4.019966  20.790889  8.120004  1.907797  4.155766  -0.600404  8.791727  -6.717255  3.677455  6.44191  15.583137  4.941548  0.829397  -1.058691  2.483954  0.152035  0.052414  6.790046  0.40969  0.1587  6.790046  0.40969  0.1587  9.024708  6.053951  9.132022  167.048216  6.939836  178.328949  -18.326835  53.508319  91.945539  67.260967  -19.831672  24.338265  9.80967  6.425922  -6.861152  -87.91042  60.177028  -139.411546  -18.716248  21.037749  -75.61071  75.993443  -6.462028  20.860749  -7.345012  -0.139515  3.322385  -5.508191  -0.1446  2.490537  
0.0  89.887642  0.0  0.193217  -23.684079  -95.752195  18.359183  -14.713861  5.640459  4.171535  3.857003  20.746421  7.999638  1.857459  4.130241  -0.540924  8.849601  -6.930047  4.552438  6.251911  16.011615  4.888531  0.732201  -1.022491  2.429182  0.099076  0.159112  6.640575  0.25453  0.444358  6.640575  0.25453  0.444358  9.681685  6.257805  8.767258  167.055156  6.763726  178.181668  -18.670805  54.366452  92.011035  66.940872  -19.600892  22.139494  10.622899  6.37291  -6.81219  -86.774096  59.909208  -138.474582  -18.706469  21.001925  -75.496738  75.924761  -6.747574  20.623255  -7.237365  -0.107681  2.731424  -5.427669  -0.113131  2.047633  
0.0  89.887642  0.0  0.228382  -23.704331  -95.854436  18.166807  -14.53023  5.70654  4.934221  3.651853  20.831465  7.779063  1.79583  4.098039  -0.301684  8.913959  -7.000897  5.033087  6.140541  16.317385  4.764548  0.683814  -1.003397  2.365959  0.056898  0.251939  6.467631  0.130722  0.693455  6.467632  0.130722  0.693455  10.219046  6.389786  8.442775  166.979777  6.66288  177.813296  -19.380336  55.777718  91.791884  67.028123  -19.67733  19.601214  11.261985  6.361017  -6.918291  -86.156737  59.794445  -137.882036  -18.756248  20.910152  -75.439737  75.811657  -6.846466  20.437968  -7.086296  -0.07915  2.339122  -5.314511  -0.086502  1.753703  
0.0  89.887642  0.0  0.261879  -23.608892  -95.895307  18.147383  -14.362229  5.661309  4.924782  3.498234  20.912782  7.708071  1.844013  4.057125  0.04434  8.889526  -7.008115  5.216377  6.155498  16.532207  4.450966  0.40712  -0.956176  2.373783  0.037875  0.28243  6.488843  0.075709  0.774854  6.488843  0.075709  0.774854  10.22346  6.354618  8.41618  166.871342  6.674773  177.359572  -20.626524  57.442984  91.105624  67.46831  -20.120803  17.134999  11.312059  6.13546  -6.81071  -85.813661  59.739516  -137.491502  -18.841093  20.843083  -75.476646  75.757932  -6.725617  20.345173  -7.273576  -0.112319  2.231228  -5.454856  -0.110817  1.672364  
0.0  89.887642  0.0  0.267201  -23.473245  -95.820744  18.212599  -14.249764  5.574816  4.338641  3.485729  20.862252  7.84266  1.993637  4.033582  0.556547  8.76637  -7.028255  5.124186  6.288852  16.688162  4.310428  0.490711  -0.933225  2.448697  0.045304  0.258787  6.693669  0.097504  0.711119  6.693669  0.097504  0.711119  9.761547  6.13665  8.684107  166.813485  6.783365  176.966016  -21.826467  59.050103  90.354383  67.494629  -20.730591  15.102267  10.815069  5.80415  -6.547178  -85.380223  59.672579  -136.913001  -18.938784  20.900586  -75.658983  75.724796  -6.430426  20.311375  -7.699631  -0.243173  2.309235  -5.773894  -0.211519  1.729185  
